<svg width="140" height="38" viewBox="0 0 140 38" fill="none" xmlns="http://www.w3.org/2000/svg">
<path d="M12.9356 0.240092V0.660091H11.5076L7.03457 12.0001H6.48857L1.21757 0.660091H0.209573V0.240092H6.15257V0.660091H5.12357L8.18957 7.69509L10.9616 0.660091H9.28157V0.240092H12.9356ZM24.2351 12.0001H18.9851V11.5801H20.0351V0.660091H18.9851V0.240092H24.2351V0.660091H23.1851V11.5801H24.2351V12.0001ZM34.9067 0.660091V6.07809C36.3067 6.07809 37.2447 5.87509 37.7207 5.46909C38.1967 5.06309 38.4347 4.38409 38.4347 3.43209C38.4347 2.48009 38.1897 1.78009 37.6997 1.33209C37.2097 0.884091 36.2787 0.660091 34.9067 0.660091ZM43.1597 12.2101H42.2357C40.4857 12.2101 39.2677 11.8321 38.5817 11.0761C38.0357 10.4881 37.6647 9.71109 37.4687 8.74509C37.3847 8.33909 37.2937 7.96809 37.1957 7.63209C36.9717 6.87609 36.5167 6.49809 35.8307 6.49809H34.9067V11.5801H35.9567V12.0001H30.7067V11.5801H31.7567V0.660091H30.7067V0.240092H36.2297C39.7997 0.240092 41.5847 1.28309 41.5847 3.36909C41.5847 4.19509 41.2837 4.86709 40.6817 5.38509C40.0797 5.90309 39.3097 6.16209 38.3717 6.16209V6.30909C39.7717 6.30909 40.7447 7.23309 41.2907 9.08109C41.5707 10.0611 41.8507 10.7611 42.1307 11.1811C42.4247 11.5871 42.7677 11.7901 43.1597 11.7901V12.2101ZM59.4748 3.81009C59.4748 2.56409 59.2648 1.73109 58.8448 1.31109C58.4388 0.877091 57.6688 0.660091 56.5348 0.660091H55.9048V11.5801H57.3748V12.0001H51.2848V11.5801H52.7548V0.660091H52.1248C51.0048 0.660091 50.2348 0.877091 49.8148 1.31109C49.4088 1.73109 49.2058 2.56409 49.2058 3.81009H48.7858V0.240092H59.8948V3.81009H59.4748ZM76.7668 6.87609C76.7668 10.5021 75.2408 12.3151 72.1888 12.3151C70.4948 12.3151 69.1718 11.8811 68.2198 11.0131C67.2678 10.1451 66.7918 8.83609 66.7918 7.08609V0.660091H65.7418V0.240092H71.2018V0.660091H70.1518V7.31709C70.1518 10.2431 71.1318 11.7061 73.0918 11.7061C73.8898 11.7061 74.6108 11.3141 75.2548 10.5301C75.9128 9.73209 76.2418 8.65409 76.2418 7.29609V0.660091H74.5828V0.240092H77.8168V0.660091H76.7668V6.87609ZM96.3297 11.5801V12.0001H90.8067V11.5801H92.0457L90.6387 8.66109H86.3967L85.1787 11.5801H86.8377V12.0001H83.2467V11.5801H84.6537L89.4627 0.0300905H89.9877L95.3217 11.5801H96.3297ZM86.5857 8.22009H90.4287L88.3707 3.93609L86.5857 8.22009ZM111.821 8.01009H112.241V12.0001H102.371V11.5801H103.421V0.660091H102.371V0.240092H107.831V0.660091H106.571V11.5801H108.671C109.147 11.5801 109.539 11.5451 109.847 11.4751C110.169 11.4051 110.498 11.2581 110.834 11.0341C111.492 10.6001 111.821 9.59209 111.821 8.01009ZM17.6396 30.1601H18.3596V37.0001H1.43957V36.2801H3.23957V17.5601H1.43957V16.8401H10.7996V17.5601H8.63957V36.2801H12.2396C13.0556 36.2801 13.7276 36.2201 14.2556 36.1001C14.8076 35.9801 15.3716 35.7281 15.9476 35.3441C17.0756 34.6001 17.6396 32.8721 17.6396 30.1601ZM28.6427 37.0001H19.6427V36.2801H21.4427V17.5601H19.6427V16.8401H28.6427V17.5601H26.8427V36.2801H28.6427V37.0001ZM38.2255 25.9841H39.3415C42.2455 25.9841 43.6975 24.6041 43.6975 21.8441C43.6975 18.9881 42.2455 17.5601 39.3415 17.5601H38.2255V25.9841ZM38.2255 36.2801H40.2415C41.6815 36.2801 42.8215 35.9081 43.6615 35.1641C44.5015 34.4201 44.9215 33.3401 44.9215 31.9241C44.9215 29.9321 44.4295 28.5641 43.4455 27.8201C42.4615 27.0761 41.1055 26.7041 39.3775 26.7041H38.2255V36.2801ZM31.0255 37.0001V36.2801H32.8255V17.5601H31.0255V16.8401H40.0975C43.0735 16.8401 45.2575 17.2961 46.6495 18.2081C48.0655 19.1201 48.7735 20.3681 48.7735 21.9521C48.7735 23.2241 48.3535 24.2681 47.5135 25.0841C46.6975 25.8761 45.5935 26.2721 44.2015 26.2721V26.4881C45.9295 26.4881 47.3815 26.9561 48.5575 27.8921C49.7335 28.8041 50.3215 30.1121 50.3215 31.8161C50.3215 33.5201 49.6375 34.8161 48.2695 35.7041C46.9015 36.5681 44.9455 37.0001 42.4015 37.0001H31.0255ZM58.8108 17.5601V26.8481C61.2108 26.8481 62.8188 26.5001 63.6348 25.8041C64.4508 25.1081 64.8588 23.9441 64.8588 22.3121C64.8588 20.6801 64.4388 19.4801 63.5988 18.7121C62.7588 17.9441 61.1628 17.5601 58.8108 17.5601ZM72.9588 37.3601H71.3748C68.3748 37.3601 66.2868 36.7121 65.1108 35.4161C64.1748 34.4081 63.5388 33.0761 63.2028 31.4201C63.0588 30.7241 62.9028 30.0881 62.7348 29.5121C62.3508 28.2161 61.5708 27.5681 60.3948 27.5681H58.8108V36.2801H60.6108V37.0001H51.6108V36.2801H53.4108V17.5601H51.6108V16.8401H61.0788C67.1988 16.8401 70.2588 18.6281 70.2588 22.2041C70.2588 23.6201 69.7428 24.7721 68.7108 25.6601C67.6788 26.5481 66.3588 26.9921 64.7508 26.9921V27.2441C67.1508 27.2441 68.8188 28.8281 69.7548 31.9961C70.2348 33.6761 70.7148 34.8761 71.1948 35.5961C71.6988 36.2921 72.2868 36.6401 72.9588 36.6401V37.3601ZM95.6001 36.2801V37.0001H86.1321V36.2801H88.2561L85.8441 31.2761H78.5721L76.4841 36.2801H79.3281V37.0001H73.1721V36.2801H75.5841L83.8281 16.4801H84.7281L93.8721 36.2801H95.6001ZM78.8961 30.5201H85.4841L81.9561 23.1761L78.8961 30.5201ZM103.725 17.5601V26.8481C106.125 26.8481 107.733 26.5001 108.549 25.8041C109.365 25.1081 109.773 23.9441 109.773 22.3121C109.773 20.6801 109.353 19.4801 108.513 18.7121C107.673 17.9441 106.077 17.5601 103.725 17.5601ZM117.873 37.3601H116.289C113.289 37.3601 111.201 36.7121 110.025 35.4161C109.089 34.4081 108.453 33.0761 108.117 31.4201C107.973 30.7241 107.817 30.0881 107.649 29.5121C107.265 28.2161 106.485 27.5681 105.309 27.5681H103.725V36.2801H105.525V37.0001H96.5249V36.2801H98.3249V17.5601H96.5249V16.8401H105.993C112.113 16.8401 115.173 18.6281 115.173 22.2041C115.173 23.6201 114.657 24.7721 113.625 25.6601C112.593 26.5481 111.273 26.9921 109.665 26.9921V27.2441C112.065 27.2441 113.733 28.8281 114.669 31.9961C115.149 33.6761 115.629 34.8761 116.109 35.5961C116.613 36.2921 117.201 36.6401 117.873 36.6401V37.3601ZM133.242 37.0001H124.962V36.2801H126.402V28.6841L119.958 17.5601H118.086V16.8401H128.166V17.5601H126.402L131.442 26.6321L136.122 17.5601H133.242V16.8401H139.542V17.5601H137.022L131.802 27.7121V36.2801H133.242V37.0001Z" fill="#332D2D"/>
</svg>
